<svg xmlns="http://www.w3.org/2000/svg" width="38" height="38">
  <defs>
    <linearGradient id="b" x1="1%" x2="98%" y1="2%" y2="98%">
      <stop offset="20%" stop-color="#FFFFFF" stop-opacity="0"/>
      <stop offset="100%" stop-color="#FFFFFF"/>
    </linearGradient>
    <filter id="a" width="141.4%" height="141.4%" x="-20.7%" y="-20.7%" filterUnits="objectBoundingBox">
      <feGaussianBlur in="SourceGraphic" stdDeviation="0"/>
    </filter>
    <mask id="cut-mask">
      <!-- Full white base for visibility -->
      <rect width="100%" height="100%" fill="white" />
      <!-- Notches to cut out -->
      <rect x="20" y="16" width="30" height="6" fill="black" />
      <rect x="16" y="20" width="6" height="30" fill="black" />
    </mask>
  </defs>
  <g fill="none" fill-rule="nonzero" mask="url(#cut-mask)">
    <!-- Main circle -->
    <path fill="#A855F7" d="M19 33.5c-8.008 0-14.5-6.492-14.5-14.5S10.992 4.5 19 4.5 33.5 10.992 33.5 19 27.008 33.5 19 33.5Zm0-5a9.5 9.5 0 1 0 0-19 9.5 9.5 0 0 0 0 19Z" filter="url(#a)" />
    <path fill="url(#b)" d="M19 33.5c-8.008 0-14.5-6.492-14.5-14.5S10.992 4.5 19 4.5 33.5 10.992 33.5 19 27.008 33.5 19 33.5Zm0-5a9.5 9.5 0 1 0 0-19 9.5 9.5 0 0 0 0 19Z" />
  </g>
</svg>
